<?xml version="1.0" encoding="UTF-8" standalone="no"?>
<!DOCTYPE svg PUBLIC "-//W3C//DTD SVG 1.1//EN" "http://www.w3.org/Graphics/SVG/1.1/DTD/svg11.dtd">
<!-- Created with Vectornator (http://vectornator.io/) -->
<svg height="100%" stroke-miterlimit="10" style="fill-rule:nonzero;clip-rule:evenodd;stroke-linecap:round;stroke-linejoin:round;" version="1.1" viewBox="0 0 512 512" width="100%" xml:space="preserve" xmlns="http://www.w3.org/2000/svg" xmlns:vectornator="http://vectornator.io" xmlns:xlink="http://www.w3.org/1999/xlink">
<defs/>
<g id="Untitled" vectornator:layerName="Untitled">
<path d="M496.077 345.043C506.367 317.31 512 287.314 512 256C512 224.686 506.367 194.69 496.077 166.957L256 144.696L15.923 166.957C5.633 194.69 0 224.686 0 256C0 287.314 5.633 317.31 15.923 345.043" fill="#ff0000" fill-rule="nonzero" opacity="1" stroke="none"/>
<path d="M15.923 345.043L256 367.304L496.077 345.043" fill="#fddf19" fill-rule="nonzero" opacity="1" stroke="none"/>
<g opacity="1">
<path d="M496.077 166.957C459.906 69.473 366.071 0 256 0C145.929 0 52.094 69.473 15.923 166.957L496.077 166.957Z" fill="#000000" fill-rule="nonzero" opacity="1" stroke="none"/>
<path d="M15.923 345.043C52.094 442.527 145.929 512 256 512C366.071 512 459.906 442.527 496.077 345.043L15.923 345.043Z" fill="#fddf19" fill-rule="nonzero" opacity="1" stroke="none"/>
</g>
</g>
</svg>
